<?xml version="1.0" encoding="utf-8"?>
<svg viewBox="0 0 500 500" xmlns="http://www.w3.org/2000/svg">
  <path d="M 475.643 12.291 C 474.906 12.301 474.152 12.366 473.43 12.494 C 473.417 12.496 473.403 12.491 473.389 12.494 L 400.501 24.906 C 395.867 25.699 391.98 28.868 390.265 33.235 C 390.265 33.249 390.265 33.262 390.265 33.277 L 356.442 119.751 L 26.354 127.96 C 22.558 128.054 18.994 129.763 16.526 132.613 C 14.058 135.464 12.872 139.254 13.332 143.025 L 31.554 293.314 C 32.306 299.62 37.529 304.62 43.88 305.114 L 279.203 323.774 L 325.844 360.356 C 325.898 360.397 325.951 360.439 326.008 360.477 C 326.058 360.513 326.12 360.525 326.172 360.56 C 326.23 360.598 326.277 360.644 326.335 360.682 C 334.846 367.016 336.957 375.647 335.754 380.442 C 335.069 383.175 334.022 385.183 331.536 386.731 C 329.05 388.277 324.755 389.397 317.409 388.977 C 317.381 388.976 317.353 388.976 317.327 388.977 C 317.091 388.969 316.825 388.971 316.589 388.977 C 316.551 388.977 316.506 388.976 316.466 388.977 L 35.804 389.793 L 35.764 389.793 C 28.389 389.747 22.181 395.914 22.21 403.266 C 22.238 410.62 28.471 416.763 35.845 416.658 L 35.885 416.658 L 56.402 416.618 C 48.777 421.462 43.667 429.937 43.667 439.563 C 43.667 454.534 55.964 466.795 70.979 466.795 C 85.993 466.795 98.291 454.534 98.291 439.563 C 98.291 429.885 93.165 421.326 85.474 416.495 L 316.591 415.842 C 308.266 420.522 302.587 429.408 302.587 439.563 C 302.587 454.534 314.886 466.795 329.899 466.795 C 344.915 466.795 357.212 454.534 357.212 439.563 C 357.212 426.561 347.95 415.601 335.675 412.943 C 347.281 408.849 356.195 400.408 361.717 387.506 C 361.798 387.348 361.867 387.183 361.922 387.017 C 366.153 370.141 358.646 351.794 343.167 339.86 C 343.126 339.816 343.086 339.775 343.044 339.737 C 343.005 339.708 342.998 339.643 342.962 339.615 C 342.827 339.45 342.678 339.3 342.513 339.166 L 309.467 313.321 L 412.532 50.096 L 477.928 38.99 C 477.94 38.987 477.956 38.993 477.967 38.99 C 484.838 37.889 489.862 31.504 489.27 24.578 C 488.677 17.637 482.612 12.194 475.634 12.287 L 475.635 12.287 L 475.643 12.291 Z M 346.492 140.492 L 327.491 189.079 L 302.718 189.079 L 302.718 141.595 L 346.492 140.492 Z M 293.259 141.841 L 293.259 189.079 L 247.52 189.079 L 247.52 142.985 L 293.259 141.841 Z M 238.061 143.188 L 238.061 189.079 L 192.321 189.079 L 192.321 144.332 L 238.061 143.188 Z M 182.862 144.576 L 182.862 189.079 L 137.123 189.079 L 137.123 145.718 L 182.862 144.576 Z M 127.664 145.964 L 127.664 189.079 L 81.926 189.079 L 81.926 147.107 L 127.664 145.964 Z M 72.465 147.312 L 72.465 189.079 L 38.929 189.079 L 33.974 148.291 L 72.465 147.312 Z M 40.076 198.47 L 72.465 198.47 L 72.465 241.137 L 45.235 241.137 L 40.076 198.47 Z M 81.926 198.47 L 127.664 198.47 L 127.664 241.137 L 81.926 241.137 L 81.926 198.47 Z M 137.123 198.47 L 182.862 198.47 L 182.862 241.137 L 137.123 241.137 L 137.123 198.47 Z M 192.321 198.47 L 238.061 198.47 L 238.061 241.137 L 192.321 241.137 L 192.321 198.47 Z M 247.52 198.47 L 293.259 198.47 L 293.259 241.137 L 247.52 241.137 L 247.52 198.47 Z M 302.718 198.47 L 323.848 198.47 L 307.14 241.137 L 302.718 241.137 L 302.718 198.47 Z M 46.389 250.528 L 72.472 250.528 L 72.472 281.149 L 49.87 279.353 L 46.389 250.528 Z M 81.933 250.528 L 127.671 250.528 L 127.671 285.517 L 81.933 281.883 L 81.933 250.528 Z M 137.131 250.528 L 182.869 250.528 L 182.869 289.885 L 137.131 286.293 L 137.131 250.528 Z M 192.329 250.528 L 238.067 250.528 L 238.067 294.295 L 192.329 290.661 L 192.329 250.528 Z M 247.527 250.528 L 293.264 250.528 L 293.264 276.494 L 284.584 298.664 C 283.457 298.12 282.228 297.784 280.98 297.685 L 247.527 295.031 L 247.527 250.528 Z M 302.726 250.528 L 303.419 250.528 L 302.726 252.446 L 302.726 250.528 Z M 71.004 423.562 C 79.928 423.562 87.056 430.67 87.056 439.567 C 87.056 448.466 79.928 455.531 71.004 455.531 C 62.079 455.531 54.952 448.466 54.952 439.567 C 54.952 430.67 62.079 423.562 71.004 423.562 Z M 329.914 423.562 C 338.839 423.562 345.966 430.67 345.966 439.567 C 345.966 448.466 338.839 455.531 329.914 455.531 C 320.99 455.531 313.863 448.466 313.863 439.567 C 313.863 430.67 320.99 423.562 329.914 423.562 Z M 71.004 431.156 C 66.156 431.156 62.282 435.018 62.282 439.853 C 62.282 444.688 66.156 448.508 71.004 448.508 C 75.852 448.508 79.725 444.688 79.725 439.853 C 79.725 435.018 75.852 431.156 71.004 431.156 Z M 329.914 431.156 C 325.066 431.156 321.192 435.018 321.192 439.853 C 321.192 444.688 325.066 448.508 329.914 448.508 C 334.762 448.508 338.635 444.688 338.635 439.853 C 338.635 435.018 334.762 431.156 329.914 431.156 Z" stroke-width="18.5" style="fill: rgb(56, 229, 77);"/>
</svg>